# xmcd CD database file
#
# Track frame offsets:
#	150
#	7564
#	19383
#	34120
#	49119
#	60868
#	74877
#	86130
#	101506
#	114426
#	128108
#	145480
#	159846
#	175333
#	189086
#	206362
#	220025
#	235942
#	244815
#	257111
#
# Disc length: 3656 seconds
#
# Revision: 0
# Processed by: cddbd v1.5.2PL0 Copyright (c) Steve Scherf et al.
# Submitted via: CDex 1.51
#
DISCID=0d0e4614
DTITLE=Harry James - Best Of Harry James
DYEAR=2010
DGENRE=Jazz
TTITLE0=Ciribiribin
TTITLE1=Trumpet Blues
TTITLE2=You Made Me Love You
TTITLE3=Cherry
TTITLE4=Carnival Of Venice
TTITLE5=Sleepy Lagoon
TTITLE6=Sabre Dance
TTITLE7=Cottontail
TTITLE8=Two O'Clock Jump
TTITLE9=It's Been A Long, Long Time
TTITLE10=St. Louis Blues
TTITLE11=Slap Happy
TTITLE12=I Had The Craziest Dream
TTITLE13=I've Heard That Song Before
TTITLE14=From The Bottom Of My Heart
TTITLE15=Will You Still Be Mine
TTITLE16=The Man I Love
TTITLE17=Sleepy Time Gal
TTITLE18=I Got It Bad
TTITLE19=Things Ain't What They Used To Be
EXTD=YEAR: 2010
EXTT0=
EXTT1=
EXTT2=
EXTT3=
EXTT4=
EXTT5=
EXTT6=
EXTT7=
EXTT8=
EXTT9=
EXTT10=
EXTT11=
EXTT12=
EXTT13=
EXTT14=
EXTT15=
EXTT16=
EXTT17=
EXTT18=
EXTT19=
PLAYORDER=
